<svg xmlns="http://www.w3.org/2000/svg" viewBox="0 0 120 100" fill="none">
  <path d="M30 30h24l6 8h30v32a4 4 0 0 1-4 4H34a4 4 0 0 1-4-4V30z" stroke="#990000" stroke-width="2" opacity="0.15" fill="none"/>
  <path d="M34 34h22l6 8h26v28a4 4 0 0 1-4 4H38a4 4 0 0 1-4-4V34z" stroke="#990000" stroke-width="2" opacity="0.25" fill="none"/>
  <circle cx="70" cy="54" r="16" stroke="#990000" stroke-width="2.5" fill="none"/>
  <path d="M66 48c0-3 2-5 5-5s5 2 5 4c0 2-2 3-4 4" stroke="#990000" stroke-width="2" stroke-linecap="round" fill="none"/>
  <circle cx="71" cy="60" r="2" fill="#990000" opacity="0.5"/>
</svg>
